<svg width="2943" height="1966" xmlns="http://www.w3.org/2000/svg" xmlns:xlink="http://www.w3.org/1999/xlink" xml:space="preserve" overflow="hidden"><g transform="translate(-728 -256)"><g><path d="M2381.33 319.614C2881.36 419.812 3205.54 906.617 3105.4 1406.92 3005.25 1907.23 2518.71 2231.58 2018.68 2131.39 1518.64 2031.19 1194.46 1544.38 1294.61 1044.08 1351.53 759.673 1538.65 518.528 1799.92 392.853L1779.49 338.156 1895.84 411.069 1858.6 550.001 1838.19 495.334C1435.18 695.28 1270.46 1184.27 1470.28 1587.53 1670.11 1990.79 2158.8 2155.61 2561.81 1955.67 2964.82 1755.72 3129.54 1266.72 2929.72 863.465 2817.68 637.356 2607.27 475.942 2359.95 426.379Z" fill="#DFCDDC" fill-rule="evenodd" fill-opacity="1"/><path d="M1921.5 307.001C1921.5 281.319 1942.32 260.5 1968 260.5L2433 260.5C2458.68 260.5 2479.5 281.319 2479.5 307.001L2479.5 492.999C2479.5 518.681 2458.68 539.5 2433 539.5L1968 539.5C1942.32 539.5 1921.5 518.681 1921.5 492.999Z" stroke="#912685" stroke-width="6.875" stroke-linecap="butt" stroke-linejoin="miter" stroke-miterlimit="8" stroke-opacity="1" fill="#FFFFFF" fill-rule="evenodd" fill-opacity="1"/><text fill="#000000" fill-opacity="1" font-family="Aptos,Aptos_MSFontService,sans-serif" font-style="normal" font-variant="normal" font-weight="400" font-stretch="normal" font-size="55" text-anchor="start" direction="ltr" writing-mode="lr-tb" unicode-bidi="normal" text-decoration="none" transform="matrix(1 0 0 1 1957.87 384)">Inname, aanmaak of </text><text fill="#000000" fill-opacity="1" font-family="Aptos,Aptos_MSFontService,sans-serif" font-style="normal" font-variant="normal" font-weight="400" font-stretch="normal" font-size="55" text-anchor="start" direction="ltr" writing-mode="lr-tb" unicode-bidi="normal" text-decoration="none" transform="matrix(1 0 0 1 1978.34 445)">opvangen van data</text><path d="M2514.5 552.834C2514.5 527.245 2535.24 506.5 2560.83 506.5L3025.17 506.5C3050.76 506.5 3071.5 527.245 3071.5 552.834L3071.5 738.165C3071.5 763.755 3050.76 784.5 3025.17 784.5L2560.83 784.5C2535.24 784.5 2514.5 763.755 2514.5 738.165Z" stroke="#912685" stroke-width="6.875" stroke-linecap="butt" stroke-linejoin="miter" stroke-miterlimit="8" stroke-opacity="1" fill="#FFFFFF" fill-rule="evenodd" fill-opacity="1"/><text fill="#000000" fill-opacity="1" font-family="Aptos,Aptos_MSFontService,sans-serif" font-style="normal" font-variant="normal" font-weight="400" font-stretch="normal" font-size="55" text-anchor="start" direction="ltr" writing-mode="lr-tb" unicode-bidi="normal" text-decoration="none" transform="matrix(1 0 0 1 2548.08 660)">Gegevensverwerking</text><path d="M2759.5 1145C2759.5 1119.32 2780.32 1098.5 2806 1098.5L3270 1098.5C3295.68 1098.5 3316.5 1119.32 3316.5 1145L3316.5 1331C3316.5 1356.68 3295.68 1377.5 3270 1377.5L2806 1377.5C2780.32 1377.5 2759.5 1356.68 2759.5 1331Z" stroke="#912685" stroke-width="6.875" stroke-linecap="butt" stroke-linejoin="miter" stroke-miterlimit="8" stroke-opacity="1" fill="#FFFFFF" fill-rule="evenodd" fill-opacity="1"/><text fill="#000000" fill-opacity="1" font-family="Aptos,Aptos_MSFontService,sans-serif" font-style="normal" font-variant="normal" font-weight="400" font-stretch="normal" font-size="55" text-anchor="start" direction="ltr" writing-mode="lr-tb" unicode-bidi="normal" text-decoration="none" transform="matrix(1 0 0 1 2823.83 1252)">Gegevens analyse</text><path d="M2514.5 1737.83C2514.5 1712.24 2535.24 1691.5 2560.83 1691.5L3025.17 1691.5C3050.76 1691.5 3071.5 1712.24 3071.5 1737.83L3071.5 1923.17C3071.5 1948.76 3050.76 1969.5 3025.17 1969.5L2560.83 1969.5C2535.24 1969.5 2514.5 1948.76 2514.5 1923.17Z" stroke="#912685" stroke-width="6.875" stroke-linecap="butt" stroke-linejoin="miter" stroke-miterlimit="8" stroke-opacity="1" fill="#FFFFFF" fill-rule="evenodd" fill-opacity="1"/><text fill="#000000" fill-opacity="1" font-family="Aptos,Aptos_MSFontService,sans-serif" font-style="normal" font-variant="normal" font-weight="400" font-stretch="normal" font-size="55" text-anchor="start" direction="ltr" writing-mode="lr-tb" unicode-bidi="normal" text-decoration="none" transform="matrix(1 0 0 1 2544.19 1845)">Gegevens hergebruik</text><path d="M1921.5 1983C1921.5 1957.32 1942.32 1936.5 1968 1936.5L2433 1936.5C2458.68 1936.5 2479.5 1957.32 2479.5 1983L2479.5 2169C2479.5 2194.68 2458.68 2215.5 2433 2215.5L1968 2215.5C1942.32 2215.5 1921.5 2194.68 1921.5 2169Z" stroke="#912685" stroke-width="6.875" stroke-linecap="butt" stroke-linejoin="miter" stroke-miterlimit="8" stroke-opacity="1" fill="#FFFFFF" fill-rule="evenodd" fill-opacity="1"/><text fill="#000000" fill-opacity="1" font-family="Aptos,Aptos_MSFontService,sans-serif" font-style="normal" font-variant="normal" font-weight="400" font-stretch="normal" font-size="55" text-anchor="start" direction="ltr" writing-mode="lr-tb" unicode-bidi="normal" text-decoration="none" transform="matrix(1 0 0 1 2003.32 2029)">Gegevensdeling, </text><text fill="#000000" fill-opacity="1" font-family="Aptos,Aptos_MSFontService,sans-serif" font-style="normal" font-variant="normal" font-weight="400" font-stretch="normal" font-size="55" text-anchor="start" direction="ltr" writing-mode="lr-tb" unicode-bidi="normal" text-decoration="none" transform="matrix(1 0 0 1 2050.39 2090)">distributie of </text><text fill="#000000" fill-opacity="1" font-family="Aptos,Aptos_MSFontService,sans-serif" font-style="normal" font-variant="normal" font-weight="400" font-stretch="normal" font-size="55" text-anchor="start" direction="ltr" writing-mode="lr-tb" unicode-bidi="normal" text-decoration="none" transform="matrix(1 0 0 1 2081.49 2150)">publicatie</text><path d="M1329.5 1737.83C1329.5 1712.24 1350.24 1691.5 1375.83 1691.5L1840.17 1691.5C1865.76 1691.5 1886.5 1712.24 1886.5 1737.83L1886.5 1923.17C1886.5 1948.76 1865.76 1969.5 1840.17 1969.5L1375.83 1969.5C1350.24 1969.5 1329.5 1948.76 1329.5 1923.17Z" stroke="#912685" stroke-width="6.875" stroke-linecap="butt" stroke-linejoin="miter" stroke-miterlimit="8" stroke-opacity="1" fill="#FFFFFF" fill-rule="evenodd" fill-opacity="1"/><text fill="#000000" fill-opacity="1" font-family="Aptos,Aptos_MSFontService,sans-serif" font-style="normal" font-variant="normal" font-weight="400" font-stretch="normal" font-size="55" text-anchor="start" direction="ltr" writing-mode="lr-tb" unicode-bidi="normal" text-decoration="none" transform="matrix(1 0 0 1 1490.89 1814)">Gegevens </text><text fill="#000000" fill-opacity="1" font-family="Aptos,Aptos_MSFontService,sans-serif" font-style="normal" font-variant="normal" font-weight="400" font-stretch="normal" font-size="55" text-anchor="start" direction="ltr" writing-mode="lr-tb" unicode-bidi="normal" text-decoration="none" transform="matrix(1 0 0 1 1477.1 1875)">archivering</text><path d="M1084.5 1145C1084.5 1119.32 1105.32 1098.5 1131 1098.5L1595 1098.5C1620.68 1098.5 1641.5 1119.32 1641.5 1145L1641.5 1331C1641.5 1356.68 1620.68 1377.5 1595 1377.5L1131 1377.5C1105.32 1377.5 1084.5 1356.68 1084.5 1331Z" stroke="#912685" stroke-width="6.875" stroke-linecap="butt" stroke-linejoin="miter" stroke-miterlimit="8" stroke-opacity="1" fill="#FFFFFF" fill-rule="evenodd" fill-opacity="1"/><text fill="#000000" fill-opacity="1" font-family="Aptos,Aptos_MSFontService,sans-serif" font-style="normal" font-variant="normal" font-weight="400" font-stretch="normal" font-size="55" text-anchor="start" direction="ltr" writing-mode="lr-tb" unicode-bidi="normal" text-decoration="none" transform="matrix(1 0 0 1 1177.11 1222)">Visualisatie van </text><text fill="#000000" fill-opacity="1" font-family="Aptos,Aptos_MSFontService,sans-serif" font-style="normal" font-variant="normal" font-weight="400" font-stretch="normal" font-size="55" text-anchor="start" direction="ltr" writing-mode="lr-tb" unicode-bidi="normal" text-decoration="none" transform="matrix(1 0 0 1 1251.84 1283)">gegevens</text><path d="M1329.5 552.834C1329.5 527.245 1350.24 506.5 1375.83 506.5L1840.17 506.5C1865.76 506.5 1886.5 527.245 1886.5 552.834L1886.5 738.165C1886.5 763.755 1865.76 784.5 1840.17 784.5L1375.83 784.5C1350.24 784.5 1329.5 763.755 1329.5 738.165Z" stroke="#912685" stroke-width="6.875" stroke-linecap="butt" stroke-linejoin="miter" stroke-miterlimit="8" stroke-opacity="1" fill="#FFFFFF" fill-rule="evenodd" fill-opacity="1"/><text fill="#000000" fill-opacity="1" font-family="Aptos,Aptos_MSFontService,sans-serif" font-style="normal" font-variant="normal" font-weight="400" font-stretch="normal" font-size="55" text-anchor="start" direction="ltr" writing-mode="lr-tb" unicode-bidi="normal" text-decoration="none" transform="matrix(1 0 0 1 1490.89 629)">Gegevens </text><text fill="#000000" fill-opacity="1" font-family="Aptos,Aptos_MSFontService,sans-serif" font-style="normal" font-variant="normal" font-weight="400" font-stretch="normal" font-size="55" text-anchor="start" direction="ltr" writing-mode="lr-tb" unicode-bidi="normal" text-decoration="none" transform="matrix(1 0 0 1 1461.6 690)">interpretatie</text></g></g></svg>